<svg id="svg" viewBox="0 0 828 424" xmlns="http://www.w3.org/2000/svg" xmlns:xlink="http://www.w3.org/1999/xlink" version="1.1" width="828" height="424" preserveAspectRatio="xMidYMid meet" buffered-rendering="static" style="background-color: rgb(255, 255, 255);"><g><path d="M 610 1.4509234098844468 C 593.9606484835658 1.214262663148212 583.3252559644401 1.5349126972993736 576.5 2.460926202423309 C 571 3.207136206079848 560.425 5.1778856411637015 553 6.84036939149854 C 545.575 8.502853141833379 535.225 11.409964358993673 530 13.30061654074364 C 524.775 15.191268722493607 515.1 19.190561561594066 508.5 22.18793396096688 C 501.9 25.185306360339695 491.1 30.919677978279367 484.5 34.93098200083282 C 477.9 38.94228602338627 467.4375 45.9988030824253 461.25 50.61213102091955 C 455.0625 55.2254589594138 444.2625 64.04391741742937 437.25 70.20870537206527 C 430.2375 76.37349332670117 419.775 86.20693024297461 414 92.06078740822849 C 408.225 97.91464457348236 400.34844621747317 106.03322715605299 396.4965471499404 110.10208203616321 C 392.6446480824076 114.17093691627345 381.86976730586406 125.6 372.5523676465102 135.5 C 363.2349679871564 145.4 342.98652176968324 166.11295844777194 327.5558204965698 181.52879655060434 C 310.0137070446461 199.0540130764124 296.314689134099 211.85067346125135 291 215.67667656933025 C 286.325 219.04217247679713 279.0125 223.6417140290252 274.75 225.8978800187259 C 270.4875 228.15404600842666 266.9928998995717 230.1125 266.98422199904815 230.25 C 266.97554409852467 230.3875 268.3255440985247 233.3125 269.98422199904815 236.75 C 271.64289989957166 240.1875 273.3375 242.98747337352088 273.75 242.97216305226863 C 274.1625 242.95685273101634 277.2 241.5562205351052 280.5 239.85964706135496 C 283.8 238.1630735876047 289.425 234.88645084486924 293 232.57826318860944 C 296.575 230.27007553234964 304.225 224.28756307454478 310 219.28379106015416 C 315.775 214.28001904576357 330.625 199.90207709544438 343 187.3328089483338 C 355.375 174.7635408012232 370 159.7545828744319 375.5 153.97956911101977 C 381 148.20455534760765 389.1 139.74645336856253 393.5 135.1837869353639 C 399.0424584413534 129.4364257790545 401.7182181828105 127.28921886881476 402.2103625394825 128.19401489204685 C 402.6010619361979 128.91230670142107 403.8939096951576 133.1 405.083357559393 137.5 C 406.27280542362837 141.9 408.0974041567865 149.55 409.1380214108556 154.5 C 410.1786386649246 159.45 411.55709698092215 169.8 412.20126211307235 177.5 C 413.10215207506815 188.26874913147313 413.0970295340215 194.50044723506068 412.17906774390354 204.5 C 411.5226957087105 211.65 409.8579464344478 222.45 408.47962491220864 228.5 C 407.1013033899695 234.55 404.14456420291344 244.9 401.9090933854174 251.5 C 399.67362256792137 258.1 394.67910471464586 269.575 390.8101648225829 277 C 386.9412249305199 284.425 381.50646611108846 293.875 378.73292300162404 298 C 375.9593798921597 302.125 372.74734094474064 306.8431202066837 371.59505867402623 308.4847115704082 C 370.4427764033118 310.12630293413275 366.0558601909871 315.75130293413275 361.84635597997135 320.9847115704082 C 357.6368517689555 326.2181202066837 351.11185176895555 333.4553014998605 347.34635597997135 337.06733666635677 C 343.5808601909871 340.679371832853 337.35 346.356161083355 333.5 349.6824238896945 C 329.65 353.00868669603403 321.55 358.9905130067403 315.5 362.97537124681946 C 309.45 366.96022948689864 299.1 372.928554612819 292.5 376.238315971087 C 285.9 379.54807732935495 276.675 383.8187985813389 272 385.72880764216245 C 267.325 387.638816702986 259.45 390.53818423133754 254.5 392.1718465940548 C 249.55 393.80550895677203 240.1 396.47068046194875 233.5 398.0944499388919 C 226.9 399.7182194158351 214.975 401.7572994871976 207 402.6257389863641 C 196.49373168400413 403.7698215436622 187.54226411640866 404.0475555596508 174.5 403.63410498350004 C 164.6 403.32026678275827 153.125 402.56917594470116 149 401.965014232262 C 144.875 401.3608525198228 137.225 399.7860999119438 132 398.4655639925308 C 126.775 397.1450280731178 118 394.50204700595856 112.5 392.59227273217687 C 107 390.6824984583952 100.5875 388.41796579983554 98.25 387.5599779353778 C 95.9125 386.70199007092003 91.6375 384.8115177491503 88.75 383.35892833144516 C 85.8625 381.90633891374 80.35 378.5822338717944 76.5 375.97202823823284 C 72.65 373.3618226046712 67.01451917595789 369.03780485552085 63.9767092799064 366.3630999067876 C 60.938899383854924 363.68839495805446 57.27844963759613 360.375 55.84237651044242 359 C 54.40630338328871 357.625 50.34666667432323 352.9 46.820961601630245 348.5 C 43.29525652893726 344.1 38.670092778045046 337.8 36.542819932980876 334.5 C 34.41554708791671 331.2 30.442407930159767 324 27.713621804632112 318.5 C 24.984835679104457 313 21.736982420638228 305.125 20.4961701191516 301 C 19.255357817664972 296.875 17.66773835176456 289.9 16.968126861595124 285.5 C 16.172036212782636 280.4932228043787 15.903021398057618 273.1972422187056 16.249129760994435 266 C 16.646825823419487 257.7300036716505 17.55265838728119 251.9721710395779 19.47422655448713 245.5 C 20.94386670606906 240.55 23.956079209612216 232.9 26.16803211791637 228.5 C 28.37998502622052 224.1 32.57584751066193 216.9 35.49217097223061 212.5 C 38.40849443379929 208.1 43.42829738114368 201.99798284450506 46.647288632995924 198.9399618766779 C 49.86627988484817 195.88194090885074 55.2 191.55673660214347 58.5 189.32839675066174 C 61.8 187.10005689918 66.75 184.13895931955 69.5 182.74817990703949 C 72.25 181.35740049452897 77.425 179.03882866898812 81 177.59579807250427 C 84.575 176.15276747602041 91.325 174.02073355829603 96 172.85794492200566 C 101.56241758807124 171.47443348634556 108.0341002199764 170.7016581827192 114.72604565843508 170.62189188255704 L 124.95209131687017 170.5 L 125.54038122230196 166 C 125.86394067028945 163.525 126.32472012399366 160.2625 126.56433556386688 158.75 L 127 156 L 121.75 155.88059431706907 C 118.8625 155.81492119145705 113.8 155.8362097613498 110.5 155.9279022501641 C 107.2 156.01959473897838 100.9 156.7394052775214 96.5 157.52748122470416 C 92.1 158.3155571718869 85.35 160.0476518005428 81.5 161.37658039949508 C 77.65 162.70550899844733 71.8 165.04058147211944 68.5 166.56563034098866 C 65.2 168.09067920985785 58.675 171.68295556259417 54 174.54846668040267 C 49.325 177.41397779821116 41.9 183.11880363332102 37.5 187.22585742509125 C 33.1 191.33291121686148 26.95070960552147 198.4747516655765 23.834910234492156 203.09661397779126 C 20.71911086346284 207.71847629000607 16.3732056664107 214.875 14.177343129931842 219 C 11.981480593452982 223.125 8.742505938170844 230.775 6.979621673749307 236 C 5.216737409327771 241.225 3.150142606379913 248.7625 2.3871887783096213 252.75 C 1.6242349502393294 256.7375 1 264.95 1 271 C 1 277.9896105019588 1.719413466624387 285.55466341871835 2.973261733488357 291.75 C 4.058555686906954 297.1125 6.324344661138346 305.55 8.008348342891452 310.5 C 9.692352024644558 315.45 13.117965934560704 323.325 15.620823698260665 328 C 18.123681461960626 332.675 22.529479557082063 340.1 25.411486131863853 344.5 C 28.293492706645644 348.9 33.93032339524471 356.325 37.9377765509729 361 C 41.945229706701085 365.675 48.661142637348256 372.5516163332287 52.862027507966616 376.2813696293972 C 57.062912378584976 380.01112292556564 63.650000000000006 385.2514660162448 67.5 387.9265764975732 C 71.35 390.60168697890157 77.65 394.37659954591993 81.5 396.31527109094736 C 85.35 398.25394263597474 94.125 401.9365596783314 101 404.49886451840655 C 107.875 407.0611693584817 118.45 410.4275480892571 124.5 411.97970614235186 C 130.55 413.53186419544664 141.35 415.63390406241075 148.5 416.6509058467166 C 157.7541209775705 417.9671936154399 167.26289080373772 418.4917862386602 181.5 418.4714943016638 C 195.18347523086697 418.4519914508078 205.76365421916478 417.8634133957677 215 416.60788075924154 C 222.425 415.5985714449941 233.675 413.5125068596699 240 411.97218168074323 C 246.325 410.4318565018166 257.35 407.0527950927302 264.5 404.4631563272179 C 271.65 401.8735175617056 281.55 397.96735671828407 286.5 395.7827988973921 C 291.45 393.59824107650024 300.45 389.09089479156796 306.5 385.76647381976477 C 312.55 382.4420528479616 321.775 376.78458079438246 327 373.19431370070004 C 332.225 369.6040466070176 340.1 363.6349544097659 344.5 359.92966437347405 C 348.9 356.2243743371822 356.14185646057734 349.43689938375843 360.59301435683847 344.846386699199 C 365.04417225309965 340.2558740146395 371.3014634068152 333.35 374.4981058095396 329.5 C 377.694748212264 325.65 383.7592499471748 317.325 387.9747763315636 311 C 392.1903027159523 304.675 398.316301984945 294.55 401.5881080404363 288.5 C 404.8599140959275 282.45 408.3665240302124 275.7 409.38057456106947 273.5 C 410.39462509192646 271.3 413.4463739685683 263.2 416.16223873138466 255.5 C 418.878103494201 247.8 422.18334226308605 236.1 423.5072137733514 229.5 C 424.83108528361674 222.9 426.41953630074136 211.65 427.03710492251724 204.5 C 427.65467354429313 197.35 427.8653712241273 187.225 427.5053219888154 182 C 427.14527275350355 176.775 426.20200648641827 167.775 425.4091747286259 162 C 424.61634297083356 156.225 423.0652040710461 147.675 421.96219939576486 143 C 420.8591947204836 138.325 419.0664706710942 131.6875 417.97836817489946 128.25 C 416.89026567870474 124.8125 415.8875 121.99317017014829 415.75 121.98482260032955 C 415.6125 121.9764750305108 412.9125 122.87647503051079 409.75 123.98482260032955 C 406.5875 125.0931701701483 404 125.55 404 125 C 404 124.45 412.8875 115.0638479226784 423.75 104.14188427261867 C 434.6125 93.21992062255893 446.9875 81.29492062255893 451.25 77.64188427261867 C 455.5125 73.9888479226784 464.0625 67.2473932097918 470.25 62.66087379953733 C 476.4375 58.07435438928285 483.975 52.751169142037845 487 50.83157325010398 C 490.025 48.91197735817011 494.975 45.961076734816444 498 44.27401630931804 C 501.025 42.58695588381965 506.65 39.636177345842626 510.5 37.71673066936909 C 514.35 35.79728399289556 522.675 32.16457453863844 529 29.64404299324216 C 535.325 27.12351144784588 543.875 24.19397194045957 548 23.13395519905037 C 552.125 22.07393845764117 561.125 20.213927572928142 568 19.00059767746587 C 576.4160693709894 17.515293158177755 586.5442173309358 16.618660437395935 599 16.256205074379963 C 610.8025749707409 15.912757640428833 621.6632642073772 16.173050512308407 629 16.975200525427944 C 635.325 17.6667340597393 645.45 19.261775608482267 651.5 20.519737300412316 C 657.55 21.77769899234236 667.675 24.71271073976629 674 27.041985628021045 C 680.325 29.371260516275804 688.65 32.70871478545016 692.5 34.45855067063073 C 696.35 36.2083865558113 702.875 39.58026636006202 707 41.95161690229901 C 711.125 44.32296744453599 716.975 47.85091379423976 720 49.7914976794185 C 723.025 51.732081564597244 729.775 56.721843584011594 735 60.87985772256151 C 740.225 65.03787186111143 748.2435116682648 72.27840965748732 752.8189148183662 76.96994171450794 C 757.3943179684677 81.66147377152858 764.4023011336712 89.775 768.3922107410409 95 C 772.3821203484106 100.225 778.3632747970795 109 781.6836650714163 114.5 C 785.0040553457532 120 789.087988931678 127.2 790.759073040138 130.5 C 792.430157148598 133.8 795.5987312088122 141 797.8003487295026 146.5 C 800.001966250193 152 802.959260250059 160.55 804.372113173649 165.5 C 805.7849660972392 170.45 807.8565571843372 179.675 808.9756489227558 186 C 810.0947406611743 192.325 811.4505410585296 204.025 811.9885386946562 212 C 812.6274467676502 221.470844368035 812.6260589249438 231.0088981527962 811.9845372835416 239.5 C 811.4443388713019 246.65 810.7317981324259 254.075 810.4011134193728 256 C 810.0704287063197 257.925 808.7198980770755 264.3375 807.3999342432745 270.25 C 806.0799704094735 276.1625 803.6120079584896 284.4875 801.915573241088 288.75 C 800.2191385236865 293.0125 796.9721899350076 300.1 794.7001319329127 304.5 C 792.4280739308177 308.9 787.8638002554031 316.55 784.5573015431023 321.5 C 780.9057169285185 326.9666114869322 773.8253722040807 335.22337217159554 766.5227428512777 342.53104311545167 C 757.4792304724318 351.5807989566033 751.2786056292888 356.70510390575055 741.5 363.2102759795133 C 734.35 367.96678034124886 722.3125 374.8153109392956 714.75 378.4292328640617 C 707.1875 382.0431547888278 695.9375 386.9743956263793 689.75 389.38754583639843 C 683.5625 391.8006960464175 673.55 395.34788977163413 667.5 397.2701985591019 C 661.45 399.19250734656976 650.2 401.9234506245942 642.5 403.3389613991561 C 634.8 404.7544721737181 624 406.46536478847406 618.5 407.1409449875026 C 613 407.8165251865312 598.825 408.35408889961417 587 408.33553101657594 C 572.8704261244656 408.3133563883 561.0434632735789 407.72545344458484 552.5 406.62058087985065 C 545.35 405.69591618769 534.325 404.0621693187137 528 402.99003228212564 C 521.675 401.9178952455375 510.65 399.44613614672534 503.5 397.4972342847652 C 496.35 395.5483324228051 485.1 392.2027475637676 478.5 390.0626012646819 C 471.9 387.92245496559616 462.9 384.74382762443486 458.5 382.9989849509901 C 454.1 381.2541422775454 445.775 377.7834522922644 440 375.28634053925464 C 434.225 372.7892287862449 429.05 370.4221322101792 428.5 370.0261259257753 C 427.95 369.6301196413715 423 366.91587522091396 417.5 363.9944716580919 C 412 361.07306809526995 404.8 357.0305170992375 401.5 355.01102500024206 C 398.2 352.9915329012466 390.4375 347.8878964175122 384.25 343.66961059194335 C 378.0625 339.4513247663745 372.8875 335.9831565981318 372.75 335.9625702180707 C 372.6125 335.9419838380096 370.5875 338.4169838380096 368.25 341.4625702180707 C 365.9125 344.5081565981318 364.16652169996325 347.3375 364.3700482221406 347.75 C 364.57357474431797 348.1625 371.21107474431795 352.83769667251653 379.1200482221406 358.1393259389256 C 387.02902169996327 363.4409552053347 399.125 370.90877437711276 406 374.73447965398793 C 412.875 378.56018493086316 422.1 383.3751772892042 426.5 385.43446267252364 C 430.9 387.493748055843 439 391.1069704280748 444.5 393.46384572192767 C 450 395.82072101578046 462.825 400.5248717091468 473 403.91751392940836 C 483.175 407.3101561496699 494.875 410.94634759927686 499 411.99793937297926 C 503.125 413.04953114668166 512.35 415.04362435898287 519.5 416.4292576225375 C 526.65 417.8148908860921 537 419.6170918602412 542.5 420.4341486762022 C 548 421.25120549216325 559.7 422.43207125752804 568.5 423.05829482145737 C 577.3881077032207 423.6907882853776 590.5006591254074 423.90975689236967 598 423.55092007021983 C 605.425 423.1956403931099 617.125 422.2375922371478 624 421.42192416808183 C 630.875 420.60625609901587 643.475 418.3876955001214 652 416.491789503872 C 660.525 414.59588350762255 671.775 411.6290693490121 677 409.89886915140437 C 682.225 408.1686689537966 692.575 404.28892325142283 700 401.2772120350181 C 707.425 398.2655008186135 719.35 392.83363773187506 726.5 389.20640517559946 C 733.65 385.57917261932386 743.775 379.7176371578554 749 376.18077081678064 C 754.225 372.6439044757059 761.875 366.9377627874874 766 363.5004559540729 C 770.125 360.06314912065835 776.7625 353.81937555368603 780.75 349.6254035830232 C 784.7375 345.4314316123604 790.5764385808558 338.5125 793.7254190685684 334.25 C 796.874399556281 329.9875 801.5231179904447 322.9 804.0559044778211 318.5 C 806.5886909651974 314.1 810.270864465457 306.9 812.2385122561757 302.5 C 814.2061600468944 298.1 816.4910704568883 292.475 817.3160909450511 290 C 818.1411114332138 287.525 819.9841838283594 281 821.4118073787077 275.5 C 822.8394309290561 270 824.7309925597344 260.775 825.6152776691039 255 C 826.6248759393003 248.40661744882075 827.2280749517978 237.98897091863208 827.2365241090733 227 C 827.243924541687 217.375 826.7311264567467 205 826.0969728092059 199.5 C 825.4628191616653 194 823.788648160143 183.875 822.3765928058232 177 C 820.9645374515034 170.125 818.0335236291763 159.1 815.8632287562077 152.5 C 813.692933883239 145.9 808.8612848218736 134.2 805.1262308420623 126.5 C 801.3911768622512 118.8 795.2831971590118 107.775 791.5529426126415 102 C 787.8226880662711 96.225 780.5944347045837 86.325 775.4901573644472 80 C 770.3858800243106 73.675 762.6749811599815 65.19076740079915 758.3548265548268 61.14614977955367 C 754.034671949672 57.10153215830819 746.225 50.562007771433734 741 46.61387336427711 C 735.775 42.66573895712048 727.225 36.78347960948741 722 33.5421859250925 C 716.775 30.300892240697593 707.1 25.070667011106273 700.5 21.919463192667344 C 693.9 18.768259374228414 684.45 14.772370442045204 679.5 13.039710010037993 C 674.55 11.307049578030778 666 8.781505318307769 660.5 7.427389432875747 C 655 6.0732735474437245 646.675 4.252629294132195 642 3.381513314405681 C 636.2767036229602 2.3150630618387935 625.8232311600511 1.6843952992111961 610 1.4509234098844468 Z " class="odd" fill="#000000"></path><path d="M 264 18.596311980171173 C 257.675 18.345331946771122 249.35 18.504275441086097 245.5 18.949519745315566 C 241.65 19.394764049545035 234.675 20.539606464717505 230 21.493614001254393 C 225.325 22.447621537791278 217.45 24.557604138665944 212.5 26.18246422542032 C 207.55 27.807324312174693 198.55 31.681306924454606 192.5 34.79131447493124 C 186.45 37.901322025407865 178.125 42.996507756952454 174 46.1139494339192 C 169.875 49.23139111088595 164.00334391463701 54.418569537922345 160.95187536586002 57.641012605111186 C 157.90040681708302 60.863455672300034 153.3293673871618 66.425 150.79400996603505 70 C 148.25865254490827 73.575 144.38358676221137 79.875 142.18275267115303 84 C 139.98191858009466 88.125 136.7904580100159 95.8875 135.090618070978 101.25 C 133.3907781319401 106.6125 131.2727802231554 115.1625 130.38395605145644 120.25 C 129.1524285741555 127.2990837673692 128.9036976718946 133.06905335021213 129.33859102947045 144.5 C 129.7010589184202 154.02728071990157 130.63233313035747 162.60120759205577 131.89109052087645 168 C 132.9810918315431 172.675 135.06571132579583 179.875 136.52357828588254 184 C 137.98144524596927 188.125 141.04235631545285 195.1 143.325602884735 199.5 C 145.60884945401713 203.9 150.03620594843179 210.875 153.16417287232312 215 C 156.29213979621446 219.125 162.37232373244277 225.95981997605563 166.67569273060823 230.18848883567915 C 170.9790617287737 234.4171576953027 178.325 240.27535009513696 183 243.2066941686442 C 187.675 246.13803824215142 195.325 249.8319896185693 200 251.41547500512843 C 206.77608634463158 253.71062659973524 210.83235376902786 254.3915489554485 220 254.77285894691636 C 226.66856404684262 255.0502245908058 234.23081162569764 254.7606420290216 238 254.08358157828187 C 241.575 253.44140324410864 245.0874237365542 252.5973880704698 245.80538608123155 252.2079923035289 C 246.86650193825406 251.632482980482 246.8168998102516 250.47081311616085 245.5403110901902 246 C 244.6765575004401 242.975 243.63913376388592 239.91058012910057 243.23492500895867 239.19017806466792 C 242.66970317298617 238.18281003383385 241.57635107845007 238.10961161522906 238.5 238.87318134915415 C 236.3 239.41923522005422 232.025 240.16607935189936 229 240.53283497547667 C 225.975 240.899590599054 220.125 240.68038576197526 216 240.04571311530168 C 211.875 239.41104046862807 205.8 237.78873473799274 202.5 236.44058926944538 C 199.2 235.09244380089802 194.0296225046154 232.52929715995796 191.01027223247863 230.74470784513417 C 187.99092196034186 228.96011853031038 181.8876408880569 223.9 177.44742540517868 219.5 C 173.00720992230046 215.1 167.788522678418 209.475 165.85034264099542 207 C 163.91216260357285 204.525 160.44618724096352 199.35 158.1481751685303 195.5 C 155.85016309609705 191.65 152.67215954532458 184.9 151.0859450557026 180.5 C 149.49973056608067 176.1 147.45923629379348 169.125 146.55151333950886 165 C 145.64379038522426 160.875 144.64680212515876 151.65 144.3359838726966 144.5 C 143.9137596344639 134.7872393128477 144.1881662115634 129.0977866559959 145.42117578079754 122 C 146.3288495827152 116.775 148.5203130877185 108.225 150.2910946808049 103 C 152.08453699755802 97.70813558169957 155.9446172901105 89.52945231506727 159.0053487886628 84.53636223820845 C 162.2248918052942 79.28419676862511 167.81246968326073 72.22243275615087 172.5 67.481379852926 C 176.9 63.031140310006 183.425 57.41449798514629 187 54.999952464348866 C 190.575 52.58540694355143 197.55 48.72599979988513 202.5 46.4234921450904 C 207.45 44.12098449029567 215.775 40.87675797859841 221 39.21409989687426 C 226.225 37.55144181515011 234.1 35.62375065711852 238.5 34.930341767915166 C 242.9 34.23693287871182 252.575 33.648621871892516 260 33.622983974983384 C 268.7630927871556 33.5927257568713 277.18426116554565 34.21645682906992 284 35.400593097629695 C 289.775 36.4039160119943 299.675 38.915407496716924 306 40.981685285902216 C 312.325 43.047963075087495 322.675 47.316454873510224 329 50.46722261573049 C 335.325 53.61799035795076 343.875 58.5036167029298 348 61.324170049017255 C 352.125 64.1447233951047 359.325 69.680883496985 364 73.62674805319568 C 368.675 77.57261260940635 374.7875970010962 83.43331161588715 377.5835488913248 86.65052362315299 C 380.3795007815535 89.86773563041885 384.82220971072246 95.425 387.4562354005893 99 C 390.0902610904561 102.575 392.6401640893599 105.3875 393.12268650926444 105.25 C 393.605208929169 105.1125 396.475 103.425 399.5 101.5 L 405 98 L 401.8156238261685 93.25 C 400.0642169305612 90.6375 395.36124704386975 84.675 391.36457963352086 80 C 387.36791222317197 75.325 381.03838150139615 68.74402349145791 377.29895580735234 65.37560775879535 C 373.55953011330854 62.007192026132785 368.475 57.71843651025751 366 55.845039945739174 C 363.525 53.97164338122083 358.125 50.182315719043025 354 47.42431180756627 C 349.875 44.666307896089506 341.325 39.87761282529778 335 36.78276720580688 C 328.675 33.68792158631598 321.025 30.245241522235453 318 29.132367063405717 C 314.975 28.01949260457598 308.45 25.997899487740177 303.5 24.639937914881713 C 298.55 23.28197634202325 290.225 21.46930442238948 285 20.61177809347334 C 279.775 19.754251764557196 270.325 18.84729201357122 264 18.596311980171173 Z " class="odd" fill="#000000"></path><path d="M 155.75 159.97661424873485 C 155.04935099736292 159.96350608609495 153.73090860369192 162.82013127238213 152.75 166.47661424873485 C 151.7875 170.06447641193068 151.225 173.45 151.5 174 C 151.775 174.55 152.5625 175.00306640096207 153.25 175.00681422436017 C 153.9375 175.01056204775827 159.45 176.62290745334315 165.5 178.5898040145488 C 171.55 180.5567005757545 180.325 183.8739702744598 185 185.96151445611616 C 189.675 188.0490586377725 197.1 191.88951316386039 201.5 194.49585784742254 C 205.9 197.10220253098467 212.65 201.82097135259946 216.5 204.98201078434425 C 220.35 208.14305021608905 226.7625 214.1652502844163 230.75 218.3646776028492 C 234.7375 222.56410492128217 238.78220802887222 227.2375 239.7382400641605 228.75 C 240.69427209944874 230.2625 244.5050818166708 235.55 248.20670610243178 240.5 C 251.90833038819272 245.45 256.23418097451116 251.3 257.8197074053616 253.5 C 259.40523383621206 255.7 265.37524000695583 263.8 271.0863877847921 271.5 C 276.79753556262847 279.2 285.3019769474378 289.49032119000975 289.9851464177018 294.3673804222439 C 294.66831588796583 299.2444396544781 301.875 306.0472017679569 306 309.4846295633079 C 310.125 312.92205735865895 316.65 317.759529815935 320.5 320.2345683572547 C 324.35 322.70960689857435 331.6625 327.0443447850956 336.75 329.8673192161907 C 341.8375 332.6902936472858 346.16149072607345 334.8875 346.35886828016316 334.75 C 346.5562458342529 334.6125 348.10108558092975 331.575 349.79184549500053 328 C 351.4826054090713 324.425 352.7836146829979 321.4615567562936 352.68297721483736 321.4145705695413 C 352.58233974667684 321.367584382789 348.45 319.16046078267567 343.5 316.50985145817833 C 338.55 313.85924213368094 330.46204641607073 308.94768537738736 325.52676981349055 305.59528088863703 C 320.59149321091036 302.24287639988665 312.26649321091037 295.39985332286153 307.02676981349055 290.38856293969235 C 301.7870464160707 285.37727255652317 294.0219130641017 276.82727255652316 289.7709179202259 271.38856293969235 C 285.51992277635014 265.94985332286154 276.2949227763502 253.68354765767137 269.2709179202259 244.13010590593638 C 262.24691306410165 234.57666415420138 254.96210636440014 224.45166415420138 253.0824585875559 221.63010590593638 C 251.20281081071164 218.80854765767137 244.22781081071162 211.09186242607194 237.5824585875559 204.4819165023821 C 229.34409087267656 196.2874426406242 222.1593757495122 190.25998474154179 215 185.53686216676698 C 209.225 181.7270282058685 200 176.49683662269948 194.5 173.91421420416918 C 189 171.33159178563892 178.3125 167.14436623666572 170.75 164.60926853978435 C 163.1875 162.07417084290296 156.4375 159.98947641193067 155.75 159.97661424873485 Z " class="odd" fill="#000000"></path></g></svg>