<svg id="svg" viewBox="0 0 828 424" xmlns="http://www.w3.org/2000/svg" xmlns:xlink="http://www.w3.org/1999/xlink" version="1.1" width="828" height="424" preserveAspectRatio="xMidYMid meet" buffered-rendering="static" style="background: rgb(255, 255, 255);"><g><path d="M 605.25 1.1498320911796807 C 595.4875 1.2322397413285051 586.15 1.4601792893899073 584.5 1.6563644202050187 C 582.85 1.8525495510201304 577.9 2.490044497983943 573.5 3.073019857902381 C 569.1 3.655995217820819 560.775 5.218518481634267 555 6.545293777487822 C 549.225 7.872069073341376 541.575 9.801398775548144 538 10.832693115725082 C 534.425 11.863987455902022 527.225 14.409116266692022 522 16.48853491748064 C 516.775 18.567953568269257 507.1 22.970738252323592 500.5 26.272500882045833 C 493.9 29.57426351176807 484 35.20266108190893 478.5 38.780051037914404 C 473 42.35744099391989 464.225 48.53189717311939 459 52.501064769468854 C 453.775 56.47023236581832 443.875 64.67817769621448 437 70.74094328146032 C 430.125 76.80370886670616 418.42148704390087 88.00471891325088 410.9921934308908 95.63207671822639 C 403.5628998178807 103.25943452320188 389.18898570495634 118.275 379.05016206883664 129 C 368.91133843271695 139.725 346.4148513888161 162.68491248248307 329.05796863794586 180.0220277388513 C 304.7904015114395 204.26195689564645 295.4208543377516 212.94507270959446 288.5 217.60864023286166 C 283.55 220.94416184819912 276.72747879054447 225.20924936571603 273.3388417567654 227.08661249401035 L 267.1776835135309 230.5 L 269.6423045688293 236 C 270.9978461492434 239.025 272.4203673586989 241.86770190900023 272.8034628120638 242.31711535333386 C 273.18655826542874 242.76652879766746 276.2 241.811012424884 279.5 240.19374563603728 C 282.8 238.57647884719054 289.325 234.66599189681696 294 231.5037746352071 C 298.675 228.3415573735972 305.425 223.23225861538697 309 220.1497773947399 C 312.575 217.06729617409286 325.85 204.1715701407561 338.5 191.49260843176933 C 351.15 178.81364672278258 366.4258284668005 163.27846185377626 372.4462854817789 156.9699753895331 C 378.4667424967573 150.6614889252899 387.4667424967573 141.3220763609491 392.4462854817789 136.21572524655352 C 397.4258284668005 131.10937413215797 401.81710489317464 127.28437413215796 402.20467754038805 127.71572524655352 C 402.59225018760145 128.1470763609491 404.0384810005751 132.775 405.41852379144046 138 C 406.79856658230585 143.225 408.8641950397296 152.675 410.0088092523821 159 C 411.15342346503456 165.325 412.3456423384895 176.8 412.65818452672625 184.5 C 413.0622284824065 194.45429921409834 412.7699042960128 201.96774353077285 411.64660734242887 210.5 C 410.77769770282856 217.1 408.951475984941 227 407.58833685823436 232.5 C 406.22519773152766 238 404.2246803032337 245.2 403.1427425731366 248.5 C 402.06080484303953 251.8 400.32308716502513 256.75 399.2811477331046 259.5 C 398.2392083011841 262.25 394.3452515081303 270.35 390.62791041520734 277.5 C 386.9105693222844 284.65 380.44257027899556 295.675 376.2545792078988 302 C 372.06658813680207 308.325 368.3825234161161 313.725 368.06776871748554 314 C 367.75301401885497 314.275 364.942931304052 317.65 361.82314046236786 321.5 C 358.7033496206837 325.35 351.72936494505285 332.7779365312743 346.3253967387438 338.00652562505394 C 340.92142853243473 343.2351147188336 334.25 349.33597496801997 331.5 351.56399284546814 C 328.75 353.7920107229163 323.575 357.66457486163694 320 360.16969093151397 C 316.425 362.67480700139106 309.225 367.2213139980729 304 370.2730398130292 C 298.775 373.32476562798547 289.1 378.27286876667847 282.5 381.26882456568035 C 275.9 384.26478036468217 267.35 387.8873986294258 263.5 389.31908737622166 C 259.65 390.7507761230175 252.45 393.08891139603423 247.5 394.514943538481 C 242.55 395.94097568092775 234.7875 397.983490170316 230.25 399.0538646260103 C 225.7125 400.1242390817046 216.4875 401.67582541018203 209.75 402.5018342448489 C 203.0125 403.3278430795158 190.525 404.0030032621027 182 404.00219020615316 C 173.475 404.00137715020355 160.875 403.3424438645798 154 402.5378940158781 C 147.125 401.7333441671764 137 399.90967566190744 131.5 398.4852973375025 C 126 397.06091901309765 116.775 394.31910602952166 111 392.39237959622255 C 105.225 390.4656531629234 96.225 386.85723211032445 91 384.3736661460026 C 85.775 381.89010018168074 78.575 377.754285425612 75 375.18296668807204 C 71.425 372.611647950532 65.1794161960338 367.5810773258131 61.12092488007511 364.0039208553633 C 57.06243356411642 360.4267643849135 50.69860562107775 353.675 46.97908500665585 349 C 43.25956439223395 344.325 37.97965218285914 336.9 35.24594676360073 332.5 C 32.512241344342314 328.1 28.566898672463246 320.9 26.478518603869475 316.5 C 24.390138535275703 312.1 21.613569107942332 305.125 20.308364320906435 301 C 19.003159533870537 296.875 17.44631437378096 290.35 16.84870840959627 286.5 C 16.222145201539405 282.4634466595226 16.00134714949814 273.9964562037437 16.327158153470577 266.5 C 16.637911476786137 259.35 17.598079814658696 251.025 18.460865570965154 248 C 19.323651327271612 244.975 20.95626769281566 240.025 22.08890193884082 237 C 23.22153618486598 233.975 25.99098800065692 228.125 28.243239307265128 224 C 30.495490613873336 219.875 34.08388859263613 214.025 36.2174570378491 211 C 38.351025483062074 207.975 42.485638857949674 203.025 45.40548675982154 200 C 48.32533466169341 196.975 54.71608337331751 191.83353361309173 59.60715056343065 188.57451914020385 C 64.4982177535438 185.31550466731596 71.425 181.3525311162388 75 179.76791124892122 C 78.575 178.18329138160365 85.1 175.8071041682734 89.5 174.48749521929847 C 93.9 173.1678862703235 101.55 171.56507628583552 106.5 170.92569525376962 C 111.45 170.28631422170372 117.6375 170.04146782194223 120.25 170.38159214318853 L 125 171 L 125.53897640083687 166.25 C 125.83541342129715 163.6375 126.28541342129715 160.2625 126.53897640083687 158.75 L 127 156 L 116.75 155.98977864022555 C 111.1125 155.98415689234963 102.675 156.63751896575587 98 157.44169435890612 C 93.325 158.24586975205636 85.45 160.2854003073799 80.5 161.97398448184725 C 75.55 163.66256865631465 67.225 167.34352280001568 62 170.15388257896063 C 56.775 172.96424235790556 49.35 177.6120137080589 45.5 180.48226335707915 C 41.65 183.35251300609937 36.209682982277556 188.1306967889921 33.410406627283464 191.10044954128523 C 30.61113027228937 194.07020229357835 25.48793229927032 200.775 22.025522242796683 206 C 18.563112186323046 211.225 14.275702065610322 218.65 12.497944196768401 222.5 C 10.72018632792648 226.35 7.900427535403008 233.775 6.231813546716239 239 C 4.56319955802947 244.225 2.633292443210334 252.1 1.9431310693403816 256.5 C 1.1488106291875773 261.564047437304 0.9004539322534397 268.903928844044 1.2663988902452843 276.5 C 1.6632341691507198 284.7372743494023 2.67487747361377 291.6356047088314 4.492708959284812 298.5 C 5.949220821888903 304 8.72211341633724 312.325 10.654692502503337 317 C 12.587271588669434 321.675 16.48527306450388 329.55 19.31691800435766 334.5 C 22.14856294421144 339.45 27.14017035767747 347.1 30.40937892317106 351.5 C 33.678587488664654 355.9 40.88638073501672 364.05416933905155 46.426697248397886 369.6203763090034 C 51.96701376177905 375.18658327895525 60.325 382.53549846974107 65 385.9512989551941 C 69.675 389.3670994406471 77.55 394.11292230104067 82.5 396.49757197829086 C 87.45 398.88222165554106 96.225 402.60232416665133 102 404.76446644742475 C 107.775 406.9266087281981 117 409.880731239512 122.5 411.3291831392333 C 128 412.7776350389546 138.575 414.94360501106 146 416.14244974391204 C 156.68475462027303 417.8676163160777 163.87927059068642 418.33132341330804 180.5 418.3660732538517 C 195.38757515639116 418.3971994968718 205.13834812119575 417.89637027297056 214 416.64541181898375 C 220.875 415.67489983219156 230.55 413.98726350046263 235.5 412.8951088595861 C 240.45 411.80295421870966 247.65 409.9805316154788 251.5 408.8452808524064 C 255.35000000000002 407.71003008933405 264.8 404.30569035397565 272.5 401.2800814404988 C 280.2 398.25447252702196 291 393.5328066411274 296.5 390.78749058295534 C 302 388.0421745247833 310.55 383.364876516463 315.5 380.39349500891024 C 320.45 377.4221135013575 325.85 373.9808339857182 327.5 372.7462071963786 C 329.15 371.5115804070389 334.1 367.7553854137168 338.5 364.3991072112184 C 342.9 361.04282900872005 350.2745428465694 354.7425069851738 354.8878729923764 350.3983916033379 C 359.5012031381835 346.0542762215021 367.1570174608796 337.775 371.900793709479 332 C 376.6445699580783 326.225 381.8019877965954 319.7 383.3617222395169 317.5 C 384.9214566824384 315.3 388.71446860688303 309.675 391.7906376271716 305 C 394.8668066474601 300.325 400.58736002015587 290.2 404.5029784553843 282.5 C 408.4185968906128 274.8 413.48820046420036 263.1 415.76876417446783 256.5 C 418.04932788473536 249.9 420.40694725891643 242.7 421.0079183393147 240.5 C 421.60888941971297 238.3 423.0044668920891 231.775 424.1092016112616 226 C 425.4304341254775 219.09325792230726 426.3131953170183 209.16902175593484 426.6887527349468 197 C 427.05249716579334 185.2137492663903 426.82057416184597 174.68949365961632 426.04967978140274 168 C 425.3841712580992 162.225 423.9656508691696 153.225 422.89741225044816 148 C 421.82917363172675 142.775 419.8402491677171 134.7875 418.4775801082046 130.25 C 417.1149110486921 125.7125 415.775 122 415.5 122 C 415.225 122 412.525 122.9 409.5 124 C 406.475 125.1 403.775 125.775 403.5 125.5 C 403.225 125.225 406.23270724991966 121.5125 410.1837938887103 117.25 C 414.13488052750097 112.9875 422.797380527501 104.16675181979215 429.4337938887103 97.64833737731588 C 436.07020724991963 91.12992293483961 446.45 81.649295219773 452.5 76.58027578827894 C 458.55 71.51125635678488 466.2 65.31539511192629 469.5 62.81169524414872 C 472.8 60.30799537637117 480.45 55.041819773303345 486.5 51.109082792886895 C 492.55 47.17634581247046 502.9 41.318536384722236 509.5 38.091728509001975 C 516.1 34.86492063328171 526 30.542190868088205 531.5 28.485662364127517 C 537 26.42913386016683 546.675 23.468402665745767 553 21.906259709858485 C 559.325 20.344116753971203 570.125 18.375324427116958 577 17.531165650182377 C 583.875 16.6870068732478 596.925 15.998424559922363 606 16.000982731681408 C 615.075 16.003540903440452 626.55 16.47007041285909 631.5 17.037714974833932 C 636.45 17.605359536808777 642.75 18.527017786517696 645.5 19.08584441863153 C 648.25 19.644671050745366 652.525 20.57499099254511 655 21.153222067075408 C 657.475 21.731453141605705 662.425 23.115992281805468 666 24.229975711963768 C 669.575 25.343959142122067 676.55 27.822238428002965 681.5 29.73726301392132 C 686.45 31.652287599839678 693.425 34.69031058541115 697 36.488425204080144 C 700.575 38.286539822749134 707.325 42.00818299803028 712 44.75874337137158 C 716.675 47.509303744712874 725.225 53.276334404029875 731 57.574367058742695 C 736.775 61.872399713455515 746.0235862623095 69.9139532112573 751.5524139162435 75.44448594274664 C 757.0812415701774 80.97501867423598 764.9793416110247 90 769.1037473403484 95.5 C 773.2281530696721 101 779.1316583615587 109.775 782.2226479889853 115 C 785.3136376164117 120.225 789.5105829941793 127.875 791.5491932729133 132 C 793.5878035516473 136.125 797.2691485676108 144.9 799.7299599750545 151.5 C 802.1907713824982 158.1 805.0389130236914 166.875 806.0591636221505 171 C 807.0794142206097 175.125 808.6149202797495 182.55 809.4713993091278 187.5 C 810.3278783385061 192.45 811.4692847841594 203.475 812.0078580772462 212 C 812.6461650326795 222.10366994598218 812.6467469603456 232.02595423885364 812.00952956115 240.5 C 811.4718755842104 247.65 810.3264776522777 257.325 809.4642008235221 262 C 808.6019239947664 266.675 806.7444966300492 274.325 805.3365844574839 279 C 803.9286722849185 283.675 800.7637900808033 292 798.3035128927834 297.5 C 795.8432357047634 303 790.3854128136428 312.675 786.175017579182 319 C 781.9646223447213 325.325 774.4653089753078 334.7182008483117 769.5098767582631 339.8737796629149 C 764.5544445412183 345.0293584775181 757.8 351.3833644011581 754.5 353.99379282655923 C 751.2 356.60422125196044 744.225 361.58639838786996 739 365.06529757302474 C 733.775 368.54419675817957 722.75 374.6195467095672 714.5 378.566075242775 C 706.25 382.5126037759828 694.775 387.5617230586342 689 389.78634031533363 C 683.225 392.010957572033 674.225 395.21152378140937 669 396.8987096695032 C 663.775 398.5858955575971 654.55 401.05910692190696 648.5 402.3947349235251 C 642.45 403.7303629251433 631.2 405.6133240549362 623.5 406.5790929897315 C 614.3241952829504 407.7299640478452 602.2637070755743 408.3518005917775 588.5 408.38368652387373 C 576.95 408.4104440328566 564.575 408.09691861886625 561 407.68696338167297 C 557.425 407.2770081444797 550.675 406.4839847295883 546 405.92468912635877 C 541.325 405.3653935231292 532.55 404.0229313974607 526.5 402.9414399582064 C 520.45 401.859948518952 511.225 399.8141364472233 506 398.3951909099203 C 500.775 396.97624537261726 489.975 393.790791534685 482 391.3164046034042 C 474.025 388.8420176721234 461.425 384.34091695461774 454 381.31395856450274 C 446.575 378.28700017438774 434.65 372.8787361676939 427.5 369.29559410518306 C 420.35 365.7124520426722 411.35 360.95651083048665 407.5 358.7268358558818 C 403.65 356.49716088127695 396.45 351.9913615152396 391.5 348.7139483757988 C 386.55 345.436535236358 380.3341141815284 341.12263693112294 377.68692040339647 339.1275076974987 C 374.7744492339243 336.9324449785155 372.5828338669391 335.8948840631002 372.1368980758832 336.5 C 371.73157957388287 337.05 369.73496539235447 339.6375 367.69997767248674 342.25 C 365.664989952619 344.8625 364 347.225 364 347.5 C 364 347.775 371.0875 352.67181019897475 379.75 358.3818004421661 C 388.4125 364.09179068535747 399.325 370.9183189604697 404 373.5518632757489 C 408.675 376.185407591028 415.875 380.00626265063926 420 382.0426522971072 C 424.125 384.07904194357513 433.125 388.2300074032287 440 391.26701998522617 C 446.875 394.3040325672237 460.375 399.483054433264 470 402.7759574653156 C 479.625 406.0688604973672 491.325 409.7428395714704 496 410.94035540776713 C 500.675 412.13787124406383 506.3 413.543534056118 508.5 414.06405054566534 C 510.7 414.5845670352127 518.35 416.1208278035274 525.5 417.4779633641425 C 532.65 418.8350989247577 544.125 420.6113643177863 551 421.42521979309504 C 557.875 422.2390752684038 569.575 423.19850283900786 577 423.5572810611041 C 584.589430548634 423.9240046165199 597.2862093700869 423.7107935051293 606 423.07029752636066 C 614.525 422.4436783601555 625.775 421.25416443875815 631 420.42693325658877 C 636.225 419.5997020744194 644.55 418.08237873258776 649.5 417.0551036080741 C 654.45 416.0278284835604 663.45 413.75821371891874 669.5 412.0115152422037 C 675.55 410.2648167654887 687.475 406.08175055954115 696 402.71581256232025 C 704.525 399.34987456509936 717.8 393.40232089381084 725.5 389.49902662612357 C 733.2 385.5957323584363 744.225 379.2027467228393 750 375.2923918803525 C 755.775 371.38203703786564 764.325 364.85392376203066 769 360.7854734896081 C 773.675 356.7170232171855 780.2 350.3417623940442 783.5 346.6182272159609 C 786.8 342.8946920378776 792.2833707856201 335.94482652325223 795.6852684124892 331.1740816279047 C 799.0871660393583 326.40333673255714 804.345122895901 317.775 807.3696169825841 312 C 810.3941110692673 306.225 814.4099844828897 297.225 816.2937801239674 292 C 818.177575765045 286.775 820.8846390078021 277.55 822.309476218983 271.5 C 823.734313430164 265.45 825.4343798094005 256.675 826.0874015061752 252 C 826.74042320295 247.325 827.2635662730274 235.625 827.2499416619028 226 C 827.235146493407 215.5480688976006 826.5576656991443 203.46566507314242 825.5677909803687 196 C 824.6562327166496 189.125 822.6120094673837 178.1 821.0250726486668 171.5 C 819.4381358299498 164.9 816.5628092455242 155 814.6354580166098 149.5 C 812.7081067876954 144 809.0380126811825 135 806.4796933354698 129.5 C 803.9213739897573 124 799.3219547574568 115.225 796.2587617081354 110 C 793.195568658814 104.775 788.6371343402388 97.575 786.1289076668575 94 C 783.6206809934762 90.425 778.4030840384136 83.68884838851407 774.5342477667184 79.03077419669795 C 770.6654114950232 74.37270000488182 765.25 68.32400996902284 762.5 65.589240783678 C 759.75 62.85447159833315 753.8725555176253 57.44062320981907 749.4390122613895 53.558466586980046 C 745.0054690051537 49.67630996414102 736.2304690051537 43.03353588840988 729.9390122613895 38.79674641868863 C 723.6475555176253 34.55995694896737 711.75 27.743656272456143 703.5 23.649411581997008 C 695.25 19.555166891537873 684.45 14.837666649534139 679.5 13.166077710877595 C 674.55 11.49448877222105 665.1 8.759741313791803 658.5 7.088861136590383 C 651.9 5.417980959388961 641.2125 3.3644453129828165 634.75 2.5254485890211718 C 627.4703703684702 1.580367674126371 616.2468873157153 1.0570046758004734 605.25 1.1498320911796807 Z " class="odd" fill="#651da3"></path><path d="M 264.5 18.63765344864786 C 258.45 18.363843551440674 249.9 18.53815269784584 245.5 19.02500710732601 C 241.1 19.511861516806185 233.225 20.885875829706873 228 22.078372247105325 C 222.775 23.270868664503777 214.675 25.592821458040127 210 27.238267343852776 C 205.325 28.883713229665425 198.35 31.80209142249391 194.5 33.72355221680496 C 190.65 35.64501301111601 183.9 39.590389241717546 179.5 42.491054951475036 C 175.1 45.391720661232526 167.8847315629444 51.30536926932416 163.46607013987648 55.63249630278978 C 159.04740871680855 59.959623336255405 153.36377602813945 66.425 150.8357752761674 70 C 148.3077745241953 73.575 144.41768756422172 80.1 142.19113758733715 84.5 C 139.9645876104526 88.9 136.78184450875472 96.55 135.1183751391196 101.5 C 133.45490576948447 106.45 131.3995707589703 114.775 130.55096400464362 120 C 129.70235725031694 125.225 129.00804263314058 134.225 129.00804263314058 140 C 129.00804263314058 145.775 129.67166646166953 154.55 130.48276225209383 159.5 C 131.29385804251814 164.45 132.83808939924847 171.65 133.91438748927237 175.5 C 134.99068557929627 179.35 137.57109843418976 186.55 139.64863827792456 191.5 C 141.72617812165936 196.45 145.68071517712426 203.875 148.4364984011799 208 C 151.19228162523552 212.125 154.80893534935643 217.06424433875 156.47350667700414 218.9760985305556 C 158.13807800465187 220.88795272236115 162.2 225.30586001485514 165.5 228.79367029165337 C 168.8 232.28148056845157 174.65 237.31088204140477 178.5 239.97011800932714 C 182.35 242.6293539772495 187.975 246.04541374324282 191 247.5613619337567 C 194.025 249.0773101242706 199.425 251.17977438909963 203 252.2335047444879 C 206.68651297552134 253.32010352150593 214.26128573373313 254.39489479831477 220.5 254.71659538555883 C 228.6928866266967 255.13906327341888 233.47773896755461 254.86481108891428 239.25 253.6419063265983 C 243.5125 252.73885784696924 247.00401320607972 251.6625 247.00891823573272 251.25 C 247.01382326538575 250.8375 246.00132326538574 247.64828094940137 244.75891823573272 244.16284655422524 L 242.5 237.82569310845048 L 240 238.49381751682068 C 238.625 238.86128594142428 235.025 239.62445471573514 232 240.1897481264004 C 228.975 240.75504153706567 223.35 240.92380828411353 219.5 240.56478534206235 C 215.65 240.2057624000112 209.125 238.77714107592078 205 237.39007128852808 C 200.875 236.0030015011354 194.35 232.9083576978846 190.5 230.51308505908187 C 186.65 228.11781242027914 179.6386625326058 222.1849840206573 174.91925007245734 217.32902194881117 C 170.1998376123089 212.47305987696504 164.3753073413627 205.575 161.97584947035472 202 C 159.57639159934672 198.425 155.92553454059538 191.9 153.86283378424062 187.5 C 151.80013302788586 183.1 148.9291253473254 174.775 147.48281671632847 169 C 145.59088804006484 161.44567316320902 144.69382607222283 154.71270593301696 144.28519425773914 145 C 143.8608026513116 134.91270202766896 144.13443789425315 128.97207257209706 145.36764322332743 121.5 C 146.2753738756282 116 148.37586405733674 107.675 150.03539918267978 103 C 151.6949343080228 98.325 154.57034539475 91.8 156.42520159762915 88.5 C 158.28005780050827 85.2 161.81223332734214 79.8 164.27448054614882 76.5 C 166.73672776495553 73.2 171.61975259522023 67.84372095429227 175.12564683562596 64.59715767620504 C 178.63154107603168 61.35059439811782 184.2 56.874715627799 187.5 54.650760408829896 C 190.8 52.426805189860794 198 48.504884726608445 203.5 45.93538160160246 C 209 43.36587847659647 216.425 40.33629111251792 220 39.20296523698346 C 223.575 38.069639361449 229.875 36.40596767020219 234 35.50591703421277 C 238.125 34.605866398223355 246.675 33.61201674615142 253 33.29736225183068 C 259.71517992802234 32.96329718550268 268.8687487613709 33.23720014081798 275 33.955669970562525 C 280.775 34.63239371018578 289.775 36.263510180647074 295 37.580373238254296 C 300.225 38.89723629586151 309.225 41.80718466755768 315 44.04692517535689 C 320.775 46.2866656831561 328.65 49.810980347101356 332.5 51.878735539679674 C 336.35 53.94649073225799 342.875 57.83379164017136 347 60.517182001709386 C 351.125 63.20057236324741 358.55 68.85120190285079 363.5 73.07413653416134 C 368.45 77.29707116547188 375.21700020513975 83.8454546126399 378.53777823364385 87.62609975009025 C 381.85855626214794 91.40674488754061 386.246056262148 96.8625 388.28777823364385 99.75 C 390.3295002051397 102.6375 392.45 105 393 105 C 393.55 105 396.475 103.425 399.5 101.5 L 405 98 L 400.11692757102117 91.25 C 397.43123773508285 87.5375 392.3859401472416 81.35 388.9051551535963 77.5 C 385.4243701599509 73.65 380.30925275299137 68.41533252006488 377.5382275825751 65.86740560014417 C 374.7672024121588 63.31947868022346 370.25 59.468181968474774 367.5 57.30896846292486 C 364.75 55.149754957374945 359.575 51.40645915918952 356 48.99053335584613 C 352.425 46.57460755250275 346.8 43.07558922578821 343.5 41.21493707425826 C 340.2 39.35428492272832 332.55 35.644135506386384 326.5 32.970160593498406 C 320.45 30.296185680610428 311.45 26.944688789311904 306.5 25.522389723946127 C 301.55 24.10009065858035 292.55 22.08118851875518 286.5 21.035940524334638 C 280.45 19.990692529914096 270.55 18.911463345855044 264.5 18.63765344864786 Z " class="odd" fill="#651da3"></path><path d="M 155.25 159.97789304906024 C 154.53119940821077 159.99060544059478 153.5219414807761 162.44351727776953 152.87504929449625 165.75 C 152.25632640646916 168.9125 151.56100748166065 171.95 151.3298961282551 172.5 C 151.0987847748495 173.05 157.2300125923262 175.6375 164.95484683375884 178.25 C 172.67968107519147 180.8625 183.1625 184.93649507126506 188.25 187.303322380589 C 193.3375 189.670149689913 200.65 193.6416674581838 204.5 196.12891742119083 C 208.35 198.61616738419787 215.1 203.7044814638241 219.5 207.43628204258243 C 223.9 211.1680826213408 229.55770318563196 216.53406485307 232.07267374584882 219.36068700198064 C 234.5876443060657 222.18730915089128 245.56917281474773 236.65 256.4760704318089 251.5 C 267.3829680488701 266.35 279.50026486323816 282.2795076164127 283.4033966859601 286.89890581425044 C 287.30652850868205 291.5183040120882 293.875 298.43367202277443 298 302.26639028244205 C 302.125 306.09910854210966 308.65 311.57697845080327 312.5 314.4394345239833 C 316.35 317.3018905971633 323.325 321.92130531528977 328 324.70480056426425 C 332.675 327.48829581323866 338.4125 330.7184182881324 340.75 331.88285050847253 C 343.0875 333.04728272881266 345.45 334 346 334 C 346.55 334 348.125 331.525 349.5 328.5 C 350.875 325.475 352 322.55 352 322 C 352 321.45 350.0875 320.1183799357558 347.75 319.0408443016796 C 345.4125 317.9633086676034 341.475 315.8810669942249 339 314.4136405830607 C 336.525 312.94621417189654 332.025 310.16299488442047 329 308.22870883311384 C 325.975 306.2944227818072 320.35 302.13310030591737 316.5 298.9813255533586 C 312.65 295.82955080079984 305.8079736890526 289.4818901525201 301.2954970867835 284.8754130016259 C 296.78302048451445 280.2689358507316 288.90802048451445 270.8194792127791 283.7954970867835 263.8766204728424 C 278.6829736890526 256.9337617329057 267.75 242.13128451632997 259.5 230.9822266582297 C 248.80513445731492 216.5291751770177 241.77341484370055 208.13191253842908 235 201.72438562499303 C 229.775 196.78163091481312 222.8 190.88979194047707 219.5 188.63141012646844 C 216.2 186.37302831245984 211.025 182.9977600412912 208 181.13081396831592 C 204.975 179.26386789534067 198.9 176.04912417322143 194.5 173.98693903027322 C 190.1 171.92475388732504 179.75 167.9241232827482 171.5 165.0966487978803 C 163.25 162.2691743130124 155.9375 159.96573422604337 155.25 159.97789304906024 Z " class="odd" fill="#651da3"></path></g></svg>